<?xml version="1.0" encoding="UTF-8"?>
<svg id="Layer_1" data-name="Layer 1" xmlns="http://www.w3.org/2000/svg" viewBox="0 0 1222.72 649.44">
  <defs>
    <style>
      .cls-1 {
        fill: #fff;
        stroke-width: 0px;
      }
    </style>
  </defs>
  <path class="cls-1" d="m598.64,295.11s-.05,0-.06-.02c26.79-6.64,50.72-20.52,69.61-39.43,18.9-18.87,32.77-42.78,39.45-69.55l18.93,65.44,25.41,87.87v.02h-.02l-87.88-25.41-65.44-18.92h0Z"/>
  <path class="cls-1" d="m611.36,397.69c-109.82,0-198.85-89.03-198.85-198.85,0-8.91.58-17.67,1.73-26.25v-.03C425.96,83.77,496.29,13.45,585.07,1.73h.03c8.58-1.15,17.35-1.73,26.25-1.73,109.82,0,198.85,89.03,198.85,198.85,0,38.33-10.85,74.11-29.63,104.47l-48.11-141.69c-.71-2.33-1.49-4.64-2.34-6.92-5.04-13.58-12.37-26.06-21.49-36.99-23.23-27.84-58.18-45.54-97.28-45.54-69.95,0-126.67,56.71-126.67,126.67,0,39.08,17.69,74.01,45.51,97.24,10.96,9.17,23.49,16.51,37.12,21.55,2.25.84,4.51,1.6,6.79,2.31l141.67,48.14c-30.35,18.77-66.11,29.6-104.42,29.6h0Z"/>
  <g>
    <path class="cls-1" d="m126.42,608.87l31.82,40.57h-49.97l-16.66-24.98c-4.7.85-9.4,1.28-14.31,1.28-42.71,0-77.3-32.03-77.3-77.3s34.59-77.09,77.3-77.09,77.09,31.82,77.09,77.09c0,25.41-10.89,46.76-27.97,60.43h0Zm-49.11-21.99c21.57,0,34.59-15.16,34.59-38.44s-13.03-38.65-34.59-38.65-34.59,14.95-34.59,38.65,12.81,38.44,34.59,38.44Z"/>
    <path class="cls-1" d="m172.76,473.7h41.64v87.34c0,15.59,7.05,25.41,22.85,25.41s23.28-9.82,23.28-25.41v-87.34h41.85v87.34c0,42.92-29.9,64.7-65.98,64.7s-63.63-21.78-63.63-64.7v-87.34h0Z"/>
    <path class="cls-1" d="m420.67,599.69h-53.38l-8.11,24.56h-43.99l54.88-150.54h48.26l54.67,150.54h-44.2l-8.11-24.56h-.02Zm-26.69-80.72l-16.02,48.69h32.24l-16.23-48.69h.01Z"/>
    <path class="cls-1" d="m624.81,548.87c0,43.56-30.54,75.38-78.58,75.38h-59.58v-150.54h59.58c48.05,0,78.58,30.96,78.58,75.17h0Zm-81.78,38.44c24.13,0,39.29-13.67,39.29-38.44s-15.16-38.86-39.29-38.86h-14.52v77.3h14.52Z"/>
    <path class="cls-1" d="m709.59,473.7c37.37,0,56.16,21.35,56.16,48.26,0,19.65-10.68,36.73-33.1,43.56l33.95,58.72h-46.76l-29.9-55.52h-4.48v55.52h-41.85v-150.54h65.98Zm-3.42,35.02h-20.71v31.39h20.71c11.32,0,17.08-5.55,17.08-15.8,0-9.4-5.77-15.59-17.08-15.59Z"/>
    <path class="cls-1" d="m879.99,599.69h-53.38l-8.11,24.56h-43.99l54.88-150.54h48.26l54.67,150.54h-44.2l-8.11-24.56h-.02Zm-26.69-80.72l-16.02,48.69h32.24l-16.23-48.69h.01Z"/>
    <path class="cls-1" d="m1085.41,473.7v150.54h-41.85l-55.73-84.13v84.13h-41.85v-150.54h41.85l55.73,85.2v-85.2h41.85Z"/>
    <path class="cls-1" d="m1101,473.7h121.72v33.31h-40.15v117.23h-41.85v-117.23h-39.72v-33.31Z"/>
  </g>
</svg>