<?xml version="1.0" encoding="utf-8"?>
<!-- Generator: Adobe Illustrator 27.9.0, SVG Export Plug-In . SVG Version: 6.00 Build 0)  -->
<svg version="1.1" id="Layer_1" xmlns="http://www.w3.org/2000/svg" xmlns:xlink="http://www.w3.org/1999/xlink" x="0px" y="0px"
	 viewBox="0 0 1500 840.4" style="enable-background:new 0 0 1500 840.4;" xml:space="preserve">
<style type="text/css">
	.st0{fill:#565656;}
	.st1{fill:#48009F;}
</style>
<path class="st0" d="M737.3,390.6C737.3,390.6,737.2,390.6,737.3,390.6c26.7-6.7,50.7-20.5,69.5-39.4c18.9-18.9,32.8-42.8,39.5-69.5
	l18.9,65.4l25.4,87.9v0h0l-87.9-25.4L737.3,390.6L737.3,390.6z"/>
<path class="st1" d="M750,493.2c-109.8,0-198.8-89-198.8-198.9c0-8.9,0.6-17.7,1.7-26.2v0c11.7-88.8,82-159.1,170.8-170.8h0
	c8.6-1.2,17.3-1.7,26.2-1.7c109.8,0,198.9,89,198.9,198.9c0,38.3-10.8,74.1-29.6,104.5l-48.1-141.7c-0.7-2.3-1.5-4.6-2.3-6.9
	c-5-13.6-12.4-26.1-21.5-37c-23.2-27.8-58.2-45.5-97.3-45.5c-70,0-126.7,56.7-126.7,126.7c0,39.1,17.7,74,45.5,97.2
	c11,9.2,23.5,16.5,37.1,21.5c2.2,0.8,4.5,1.6,6.8,2.3l141.7,48.1C824.1,482.3,788.3,493.2,750,493.2L750,493.2z"/>
<g>
	<path class="st1" d="M265.1,704.4l31.8,40.6h-50l-16.7-25c-4.7,0.8-9.4,1.3-14.3,1.3c-42.7,0-77.3-32-77.3-77.3
		s34.6-77.1,77.3-77.1s77.1,31.8,77.1,77.1C293,669.3,282.1,690.7,265.1,704.4L265.1,704.4z M215.9,682.4
		c21.6,0,34.6-15.2,34.6-38.4s-13-38.7-34.6-38.7s-34.6,15-34.6,38.7S194.2,682.4,215.9,682.4z"/>
	<path class="st1" d="M311.4,569.2H353v87.3c0,15.6,7,25.4,22.9,25.4s23.3-9.8,23.3-25.4v-87.3H441v87.3c0,42.9-29.9,64.7-66,64.7
		s-63.6-21.8-63.6-64.7L311.4,569.2L311.4,569.2z"/>
	<path class="st1" d="M559.3,695.2h-53.4l-8.1,24.6h-44l54.9-150.5H557l54.7,150.5h-44.2L559.3,695.2L559.3,695.2z M532.6,614.5
		l-16,48.7h32.2L532.6,614.5L532.6,614.5z"/>
	<path class="st1" d="M763.5,644.4c0,43.6-30.5,75.4-78.6,75.4h-59.6V569.2h59.6C732.9,569.2,763.5,600.2,763.5,644.4L763.5,644.4z
		 M681.7,682.8c24.1,0,39.3-13.7,39.3-38.4s-15.2-38.9-39.3-38.9h-14.5v77.3H681.7z"/>
	<path class="st1" d="M848.2,569.2c37.4,0,56.2,21.3,56.2,48.3c0,19.7-10.7,36.7-33.1,43.6l34,58.7h-46.8l-29.9-55.5h-4.5v55.5
		h-41.8V569.2H848.2z M844.8,604.2h-20.7v31.4h20.7c11.3,0,17.1-5.5,17.1-15.8C861.9,610.4,856.1,604.2,844.8,604.2z"/>
	<path class="st1" d="M1018.6,695.2h-53.4l-8.1,24.6h-44L968,569.2h48.3l54.7,150.5h-44.2L1018.6,695.2L1018.6,695.2z M991.9,614.5
		l-16,48.7h32.2L991.9,614.5L991.9,614.5z"/>
	<path class="st1" d="M1224.1,569.2v150.5h-41.8l-55.7-84.1v84.1h-41.8V569.2h41.8l55.7,85.2v-85.2H1224.1z"/>
	<path class="st1" d="M1239.6,569.2h121.7v33.3h-40.2v117.2h-41.8V602.5h-39.7V569.2z"/>
</g>
</svg>
