<?xml version="1.0" encoding="utf-8"?>
<!-- Generator: Adobe Illustrator 27.9.0, SVG Export Plug-In . SVG Version: 6.00 Build 0)  -->
<svg version="1.1" id="Layer_1" xmlns="http://www.w3.org/2000/svg" xmlns:xlink="http://www.w3.org/1999/xlink" x="0px" y="0px"
	 viewBox="0 0 1500 840.4" style="enable-background:new 0 0 1500 840.4;" xml:space="preserve">
<style type="text/css">
	.st0{fill:#FFFFFF;}
</style>
<g>
	<path class="st0" d="M187.5,484.3C187.5,484.3,187.4,484.3,187.5,484.3c17.8-4.4,33.7-13.7,46.3-26.3
		c12.6-12.6,21.8-28.5,26.3-46.3l12.6,43.6l16.9,58.5l0,0l0,0l-58.5-16.9L187.5,484.3L187.5,484.3z"/>
	<path class="st0" d="M196,552.6c-73.1,0-132.4-59.3-132.4-132.4c0-5.9,0.4-11.8,1.2-17.5v0c7.8-59.1,54.6-106,113.8-113.8h0
		c5.7-0.8,11.6-1.1,17.5-1.1c73.1,0,132.4,59.3,132.4,132.4c0,25.5-7.2,49.4-19.7,69.6l-32-94.4c-0.5-1.5-1-3.1-1.6-4.6
		c-3.4-9-8.2-17.4-14.3-24.6c-15.5-18.5-38.8-30.3-64.8-30.3c-46.6,0-84.3,37.8-84.3,84.4c0,26,11.8,49.3,30.3,64.8
		c7.3,6.1,15.6,11,24.7,14.4c1.5,0.6,3,1.1,4.5,1.5l94.3,32.1C245.3,545.4,221.5,552.6,196,552.6L196,552.6z"/>
</g>
<g>
	<path class="st0" d="M501.5,461.5l27.1,34.6H486l-14.2-21.3c-4,0.7-8,1.1-12.2,1.1c-36.4,0-65.9-27.3-65.9-65.9
		s29.5-65.7,65.9-65.7s65.7,27.1,65.7,65.7C525.3,431.7,516,449.9,501.5,461.5L501.5,461.5z M459.6,442.8
		c18.4,0,29.5-12.9,29.5-32.8s-11.1-33-29.5-33s-29.5,12.8-29.5,33S441,442.8,459.6,442.8z"/>
	<path class="st0" d="M541,346.3h35.5v74.5c0,13.3,6,21.7,19.5,21.7s19.8-8.4,19.8-21.7v-74.5h35.7v74.5c0,36.6-25.5,55.2-56.3,55.2
		S541,457.4,541,420.8L541,346.3L541,346.3z"/>
	<path class="st0" d="M752.4,453.7h-45.5l-6.9,20.9h-37.5l46.8-128.4h41.2L797,474.7h-37.7L752.4,453.7L752.4,453.7z M729.7,384.9
		L716,426.4h27.5L729.7,384.9z"/>
	<path class="st0" d="M926.5,410.4c0,37.1-26,64.3-67,64.3h-50.8V346.3h50.8C900.5,346.3,926.5,372.7,926.5,410.4L926.5,410.4z
		 M856.8,443.1c20.6,0,33.5-11.7,33.5-32.8s-12.9-33.1-33.5-33.1h-12.4v65.9H856.8z"/>
	<path class="st0" d="M998.8,346.3c31.9,0,47.9,18.2,47.9,41.2c0,16.8-9.1,31.3-28.2,37.1l29,50.1h-39.9l-25.5-47.4h-3.8v47.4h-35.7
		V346.3L998.8,346.3L998.8,346.3z M995.9,376.1h-17.7v26.8h17.7c9.7,0,14.6-4.7,14.6-13.5C1010.5,381.4,1005.6,376.1,995.9,376.1
		L995.9,376.1z"/>
	<path class="st0" d="M1144.2,453.7h-45.5l-6.9,20.9h-37.5l46.8-128.4h41.2l46.6,128.4h-37.7L1144.2,453.7L1144.2,453.7z
		 M1121.4,384.9l-13.7,41.5h27.5L1121.4,384.9z"/>
	<path class="st0" d="M1319.4,346.3v128.4h-35.7l-47.5-71.8v71.8h-35.7V346.3h35.7l47.5,72.7v-72.7L1319.4,346.3L1319.4,346.3z"/>
	<path class="st0" d="M1332.7,346.3h103.8v28.4h-34.2v100h-35.7v-100h-33.9L1332.7,346.3L1332.7,346.3z"/>
</g>
</svg>
