<?xml version="1.0" encoding="utf-8"?>
<!-- Generator: Adobe Illustrator 27.9.0, SVG Export Plug-In . SVG Version: 6.00 Build 0)  -->
<svg version="1.1" id="Layer_1" xmlns="http://www.w3.org/2000/svg" xmlns:xlink="http://www.w3.org/1999/xlink" x="0px" y="0px"
	 viewBox="0 0 216 108" style="enable-background:new 0 0 216 108;" xml:space="preserve">
<style type="text/css">
	.st0{fill:#FFFFFF;}
</style>
<g>
	<g>
		<path class="st0" d="M34.3,64.8C34.3,64.8,34.3,64.8,34.3,64.8c3-0.7,5.7-2.3,7.8-4.4c2.1-2.1,3.7-4.8,4.4-7.8l2.1,7.3l2.8,9.8v0
			h0l-9.8-2.8L34.3,64.8z"/>
		<path class="st0" d="M35.8,76.2c-12.3,0-22.2-9.9-22.2-22.2c0-1,0.1-2,0.2-2.9c0,0,0,0,0,0C15,41.1,22.9,33.3,32.8,32c0,0,0,0,0,0
			c1-0.1,1.9-0.2,2.9-0.2C48,31.8,58,41.7,58,54c0,4.3-1.2,8.3-3.3,11.7l-5.4-15.8c-0.1-0.3-0.2-0.5-0.3-0.8
			c-0.6-1.5-1.4-2.9-2.4-4.1c-2.6-3.1-6.5-5.1-10.9-5.1c-7.8,0-14.2,6.3-14.2,14.2c0,4.4,2,8.3,5.1,10.9c1.2,1,2.6,1.8,4.1,2.4
			c0.3,0.1,0.5,0.2,0.8,0.3l15.8,5.4C44,75,40,76.2,35.8,76.2z"/>
	</g>
	<g>
		<g>
			<path class="st0" d="M78.9,52.7l3.8,4.5h-5.1l-2.2-3c-0.6,0.1-1.2,0.2-1.9,0.2c-4.9,0-8.8-3.6-8.8-8.8c0-5.2,4-8.8,8.8-8.8
				c4.9,0,8.8,3.6,8.8,8.8C82.3,48.7,80.9,51.1,78.9,52.7z M73.5,50.7c2.7,0,4.5-2,4.5-5c0-3.1-1.8-5-4.5-5c-2.8,0-4.6,1.9-4.6,5
				C68.9,48.7,70.7,50.7,73.5,50.7z"/>
			<path class="st0" d="M84.6,37.1h4.2v10.3c0,2,1,3.2,3,3.2s3-1.2,3-3.2V37.1h4.2v10.3c0,4.7-3.3,7.1-7.3,7.1c-4,0-7.1-2.3-7.1-7.1
				V37.1z"/>
			<path class="st0" d="M112.6,51.3h-6.4l-1,3h-4.4l6.2-17.2h4.8l6.2,17.2h-4.4L112.6,51.3z M109.4,41.7l-2.1,6.3h4.2L109.4,41.7z"
				/>
			<path class="st0" d="M135.4,45.7c0,5.1-3.5,8.6-9,8.6h-6.4V37.1h6.4C131.8,37.1,135.4,40.6,135.4,45.7z M126.1,50.7
				c3.2,0,5-1.8,5-5c0-3.2-1.9-5-5-5h-2v10H126.1z"/>
			<path class="st0" d="M144.7,37.1c4.2,0,6.3,2.4,6.3,5.4c0,2.2-1.2,4.2-3.8,5l4,6.8h-4.7l-3.6-6.5h-1v6.5h-4.2V37.1H144.7z
				 M144.5,40.6h-2.6v4.3h2.6c1.6,0,2.3-0.8,2.3-2.2C146.8,41.4,146.1,40.6,144.5,40.6z"/>
			<path class="st0" d="M164.4,51.3h-6.4l-1,3h-4.4l6.2-17.2h4.8l6.2,17.2h-4.4L164.4,51.3z M161.2,41.7L159,48h4.2L161.2,41.7z"/>
			<path class="st0" d="M187.1,37.1v17.2h-4.2l-7-10.6v10.6h-4.2V37.1h4.2l7,10.6V37.1H187.1z"/>
			<path class="st0" d="M189.2,37.1h13.3v3.4h-4.6v13.8h-4.2V40.5h-4.6V37.1z"/>
		</g>
		<g>
			<path class="st0" d="M64.6,62.5h6.6v1.7H69V71h-2.1v-6.9h-2.3V62.5z"/>
			<path class="st0" d="M81.7,64.2h-3.2v1.7h2.8v1.6h-2.8v1.9h3.2V71h-5.2v-8.6h5.2V64.2z"/>
			<path class="st0" d="M91.1,62.4c2,0,3.6,1.1,4.1,3h-2.3c-0.4-0.7-1-1.1-1.8-1.1c-1.3,0-2.2,1-2.2,2.5c0,1.5,0.9,2.5,2.2,2.5
				c0.8,0,1.4-0.4,1.8-1.1h2.3c-0.5,1.9-2,3-4.1,3c-2.5,0-4.3-1.8-4.3-4.3C86.8,64.2,88.6,62.4,91.1,62.4z"/>
			<path class="st0" d="M105.9,67.5h-3.2V71h-2.1v-8.6h2.1v3.4h3.2v-3.4h2.1V71h-2.1V67.5z"/>
			<path class="st0" d="M121.3,62.5V71h-2.1l-3.5-5.3V71h-2.1v-8.6h2.1l3.5,5.3v-5.3H121.3z"/>
			<path class="st0" d="M131,71.1c-2.4,0-4.4-1.8-4.4-4.4s2-4.4,4.4-4.4c2.4,0,4.4,1.8,4.4,4.4S133.4,71.1,131,71.1z M131,69.2
				c1.4,0,2.3-1,2.3-2.5c0-1.5-0.9-2.5-2.3-2.5c-1.4,0-2.3,1-2.3,2.5C128.7,68.2,129.6,69.2,131,69.2z"/>
			<path class="st0" d="M142.8,62.5v6.9h2.7V71h-4.8v-8.6H142.8z"/>
			<path class="st0" d="M154.7,71.1c-2.4,0-4.4-1.8-4.4-4.4s2-4.4,4.4-4.4c2.4,0,4.4,1.8,4.4,4.4S157.1,71.1,154.7,71.1z
				 M154.7,69.2c1.4,0,2.3-1,2.3-2.5c0-1.5-0.9-2.5-2.3-2.5c-1.4,0-2.3,1-2.3,2.5C152.4,68.2,153.3,69.2,154.7,69.2z"/>
			<path class="st0" d="M172.3,65.2H170c-0.3-0.6-0.9-0.9-1.7-0.9c-1.3,0-2.2,1-2.2,2.4c0,1.6,0.9,2.5,2.4,2.5c1,0,1.8-0.5,2.1-1.5
				h-2.6v-1.5h4.5v1.9c-0.4,1.5-1.9,2.9-4.1,2.9c-2.6,0-4.4-1.8-4.4-4.3c0-2.6,1.8-4.4,4.3-4.4C170.4,62.4,171.9,63.4,172.3,65.2z"
				/>
			<path class="st0" d="M177.8,62.5h2.1V71h-2.1V62.5z"/>
			<path class="st0" d="M190.7,64.2h-3.2v1.7h2.8v1.6h-2.8v1.9h3.2V71h-5.2v-8.6h5.2V64.2z"/>
			<path class="st0" d="M199.3,71.1c-1.8,0-3.3-0.9-3.3-2.6h2.2c0.1,0.7,0.5,1,1.1,1c0.6,0,1-0.3,1-0.8c0-1.6-4.3-0.7-4.3-3.8
				c0-1.6,1.3-2.5,3.1-2.5c1.9,0,3.1,0.9,3.2,2.6h-2.3c0-0.5-0.4-0.9-1-0.9c-0.5,0-0.9,0.2-0.9,0.8c0,1.5,4.2,0.8,4.2,3.7
				C202.5,69.9,201.3,71.1,199.3,71.1z"/>
		</g>
	</g>
</g>
</svg>
