<?xml version="1.0" encoding="utf-8"?>
<!-- Generator: Adobe Illustrator 27.9.0, SVG Export Plug-In . SVG Version: 6.00 Build 0)  -->
<svg version="1.1" id="Layer_1" xmlns="http://www.w3.org/2000/svg" xmlns:xlink="http://www.w3.org/1999/xlink" x="0px" y="0px"
	 viewBox="0 0 154.4 82" style="enable-background:new 0 0 154.4 82;" xml:space="preserve">
<style type="text/css">
	.st0{fill:#565656;}
	.st1{fill:#48009F;}
</style>
<g>
	<g>
		<path class="st0" d="M76.1,33.3C76.1,33.3,76.1,33.3,76.1,33.3c2.3-0.6,4.3-1.8,6-3.4c1.6-1.6,2.8-3.7,3.4-6l1.6,5.6l2.2,7.5v0h0
			l-7.5-2.2L76.1,33.3z"/>
		<path class="st1" d="M77.2,42.1c-9.4,0-17-7.6-17-17c0-0.8,0-1.5,0.1-2.2c0,0,0,0,0,0c1-7.6,7-13.6,14.6-14.6c0,0,0,0,0,0
			C75.7,8,76.4,8,77.2,8c9.4,0,17,7.6,17,17c0,3.3-0.9,6.3-2.5,8.9l-4.1-12.1c-0.1-0.2-0.1-0.4-0.2-0.6c-0.4-1.2-1.1-2.2-1.8-3.2
			c-2-2.4-5-3.9-8.3-3.9c-6,0-10.8,4.9-10.8,10.8c0,3.3,1.5,6.3,3.9,8.3c0.9,0.8,2,1.4,3.2,1.8c0.2,0.1,0.4,0.1,0.6,0.2l12.1,4.1
			C83.5,41.1,80.5,42.1,77.2,42.1z"/>
		<g>
			<path class="st1" d="M35.7,60.1l2.7,3.5h-4.3l-1.4-2.1c-0.4,0.1-0.8,0.1-1.2,0.1c-3.7,0-6.6-2.7-6.6-6.6s3-6.6,6.6-6.6
				c3.7,0,6.6,2.7,6.6,6.6C38.1,57.1,37.1,59,35.7,60.1z M31.4,58.3c1.8,0,3-1.3,3-3.3c0-2-1.1-3.3-3-3.3c-1.9,0-3,1.3-3,3.3
				C28.5,57,29.6,58.3,31.4,58.3z"/>
			<path class="st1" d="M39.6,48.6h3.6v7.5c0,1.3,0.6,2.2,2,2.2c1.4,0,2-0.8,2-2.2v-7.5h3.6v7.5c0,3.7-2.6,5.5-5.7,5.5
				c-3.1,0-5.5-1.9-5.5-5.5V48.6z"/>
			<path class="st1" d="M60.9,59.4h-4.6l-0.7,2.1h-3.8l4.7-12.9h4.1l4.7,12.9h-3.8L60.9,59.4z M58.6,52.4l-1.4,4.2H60L58.6,52.4z"/>
			<path class="st1" d="M78.3,55c0,3.7-2.6,6.5-6.7,6.5h-5.1V48.6h5.1C75.7,48.6,78.3,51.2,78.3,55z M71.3,58.3
				c2.1,0,3.4-1.2,3.4-3.3c0-2.1-1.3-3.3-3.4-3.3h-1.2v6.6H71.3z"/>
			<path class="st1" d="M85.6,48.6c3.2,0,4.8,1.8,4.8,4.1c0,1.7-0.9,3.1-2.8,3.7l2.9,5h-4l-2.6-4.8h-0.4v4.8h-3.6V48.6H85.6z
				 M85.3,51.6h-1.8v2.7h1.8c1,0,1.5-0.5,1.5-1.4C86.8,52.1,86.3,51.6,85.3,51.6z"/>
			<path class="st1" d="M100.2,59.4h-4.6l-0.7,2.1h-3.8l4.7-12.9h4.1l4.7,12.9h-3.8L100.2,59.4z M97.9,52.4l-1.4,4.2h2.8L97.9,52.4z
				"/>
			<path class="st1" d="M117.8,48.6v12.9h-3.6l-4.8-7.2v7.2h-3.6V48.6h3.6l4.8,7.3v-7.3H117.8z"/>
			<path class="st1" d="M119.1,48.6h10.4v2.9h-3.4v10h-3.6v-10h-3.4V48.6z"/>
		</g>
	</g>
	<g>
		<path class="st0" d="M25.1,67.5h5v1.3h-1.7v5.2h-1.6v-5.2h-1.7V67.5z"/>
		<path class="st0" d="M37.9,68.7h-2.4V70h2.1v1.2h-2.1v1.4h2.4v1.3h-4v-6.5h4V68.7z"/>
		<path class="st0" d="M45.1,67.4c1.5,0,2.7,0.9,3.1,2.3h-1.7c-0.3-0.6-0.8-0.8-1.4-0.8c-1,0-1.6,0.7-1.6,1.9c0,1.1,0.7,1.9,1.6,1.9
			c0.6,0,1.1-0.3,1.4-0.8h1.7c-0.4,1.4-1.5,2.3-3.1,2.3c-1.9,0-3.3-1.4-3.3-3.3C41.8,68.8,43.2,67.4,45.1,67.4z"/>
		<path class="st0" d="M56.3,71.3h-2.5v2.7h-1.6v-6.5h1.6V70h2.5v-2.5h1.6v6.5h-1.6V71.3z"/>
		<path class="st0" d="M67.9,67.5v6.5h-1.6l-2.6-4v4h-1.6v-6.5h1.6l2.6,4v-4H67.9z"/>
		<path class="st0" d="M75.3,74c-1.8,0-3.3-1.4-3.3-3.3s1.5-3.3,3.3-3.3c1.8,0,3.3,1.4,3.3,3.3S77.1,74,75.3,74z M75.3,72.6
			c1,0,1.7-0.7,1.7-1.9c0-1.2-0.7-1.9-1.7-1.9c-1.1,0-1.7,0.7-1.7,1.9C73.5,71.8,74.2,72.6,75.3,72.6z"/>
		<path class="st0" d="M84.2,67.5v5.3h2.1v1.2h-3.6v-6.5H84.2z"/>
		<path class="st0" d="M93.2,74c-1.8,0-3.3-1.4-3.3-3.3s1.5-3.3,3.3-3.3c1.8,0,3.3,1.4,3.3,3.3S95,74,93.2,74z M93.2,72.6
			c1,0,1.7-0.7,1.7-1.9c0-1.2-0.7-1.9-1.7-1.9c-1.1,0-1.7,0.7-1.7,1.9C91.5,71.8,92.1,72.6,93.2,72.6z"/>
		<path class="st0" d="M106.5,69.5h-1.7c-0.2-0.4-0.7-0.7-1.3-0.7c-1,0-1.7,0.7-1.7,1.8c0,1.2,0.7,1.9,1.8,1.9
			c0.8,0,1.3-0.4,1.6-1.1h-2v-1.2h3.4v1.5c-0.3,1.1-1.4,2.2-3.1,2.2c-1.9,0-3.3-1.4-3.3-3.3c0-1.9,1.4-3.3,3.3-3.3
			C105.1,67.4,106.2,68.2,106.5,69.5z"/>
		<path class="st0" d="M110.7,67.5h1.6v6.5h-1.6V67.5z"/>
		<path class="st0" d="M120.5,68.7h-2.4V70h2.1v1.2h-2.1v1.4h2.4v1.3h-4v-6.5h4V68.7z"/>
		<path class="st0" d="M127,74c-1.4,0-2.5-0.7-2.5-2h1.7c0,0.5,0.4,0.7,0.8,0.7c0.5,0,0.8-0.2,0.8-0.6c0-1.2-3.2-0.6-3.2-2.8
			c0-1.2,1-1.9,2.4-1.9c1.4,0,2.4,0.7,2.4,1.9h-1.7c0-0.4-0.3-0.7-0.7-0.7c-0.4,0-0.7,0.2-0.7,0.6c0,1.1,3.2,0.6,3.2,2.8
			C129.3,73.1,128.5,74,127,74z"/>
	</g>
</g>
</svg>
