<?xml version="1.0" encoding="UTF-8"?>
<svg id="Layer_1" data-name="Layer 1" xmlns="http://www.w3.org/2000/svg" viewBox="0 0 1500 840.41">
  <defs>
    <style>
      .cls-1 {
        fill: #fff;
        stroke-width: 0px;
      }
    </style>
  </defs>
  <g>
    <path class="cls-1" d="m187.48,484.32s-.03,0-.04-.01c17.84-4.42,33.77-13.66,46.36-26.26,12.59-12.56,21.82-28.49,26.27-46.32l12.61,43.58,16.92,58.51h0s-.01.01-.01.01l-58.52-16.92-43.58-12.6Z"/>
    <path class="cls-1" d="m195.96,552.63c-73.13,0-132.42-59.29-132.42-132.42,0-5.93.39-11.77,1.15-17.48v-.02c7.81-59.13,54.64-105.96,113.77-113.77h.02c5.72-.76,11.55-1.15,17.48-1.15,73.13,0,132.42,59.29,132.42,132.42,0,25.53-7.22,49.35-19.73,69.57l-32.04-94.35c-.47-1.55-.99-3.09-1.56-4.61-3.36-9.04-8.24-17.35-14.31-24.63-15.47-18.54-38.75-30.33-64.78-30.33-46.58,0-84.35,37.77-84.35,84.35,0,26.02,11.78,49.29,30.31,64.76,7.3,6.1,15.64,10.99,24.72,14.35,1.5.56,3,1.07,4.52,1.54l94.34,32.06c-20.21,12.5-44.02,19.71-69.54,19.71Z"/>
  </g>
  <g>
    <path class="cls-1" d="m501.48,461.55l27.14,34.6h-42.62l-14.21-21.31c-4.01.73-8.01,1.09-12.2,1.09-36.42,0-65.93-27.32-65.93-65.93s29.5-65.74,65.93-65.74,65.74,27.14,65.74,65.74c0,21.67-9.29,39.88-23.86,51.54Zm-41.89-18.76c18.39,0,29.5-12.93,29.5-32.78s-11.11-32.96-29.5-32.96-29.5,12.75-29.5,32.96,10.93,32.78,29.5,32.78Z"/>
    <path class="cls-1" d="m541,346.27h35.51v74.49c0,13.29,6.01,21.67,19.49,21.67s19.85-8.38,19.85-21.67v-74.49h35.69v74.49c0,36.61-25.5,55.18-56.27,55.18s-54.27-18.58-54.27-55.18v-74.49Z"/>
    <path class="cls-1" d="m752.44,453.71h-45.53l-6.92,20.94h-37.52l46.8-128.39h41.16l46.62,128.39h-37.7l-6.92-20.94Zm-22.76-68.84l-13.66,41.52h27.5l-13.84-41.52Z"/>
    <path class="cls-1" d="m926.54,410.37c0,37.15-26.04,64.29-67.02,64.29h-50.81v-128.39h50.81c40.98,0,67.02,26.41,67.02,64.11Zm-69.75,32.78c20.58,0,33.51-11.66,33.51-32.78s-12.93-33.15-33.51-33.15h-12.38v65.93h12.38Z"/>
    <path class="cls-1" d="m998.84,346.27c31.87,0,47.9,18.21,47.9,41.16,0,16.75-9.11,31.32-28.23,37.15l28.96,50.08h-39.88l-25.5-47.35h-3.82v47.35h-35.69v-128.39h56.27Zm-2.91,29.87h-17.67v26.77h17.67c9.65,0,14.57-4.74,14.57-13.48,0-8.01-4.92-13.29-14.57-13.29Z"/>
    <path class="cls-1" d="m1144.17,453.71h-45.53l-6.92,20.94h-37.52l46.8-128.39h41.16l46.62,128.39h-37.7l-6.92-20.94Zm-22.76-68.84l-13.66,41.52h27.5l-13.84-41.52Z"/>
    <path class="cls-1" d="m1319.36,346.27v128.39h-35.69l-47.53-71.75v71.75h-35.69v-128.39h35.69l47.53,72.66v-72.66h35.69Z"/>
    <path class="cls-1" d="m1332.66,346.27h103.81v28.41h-34.24v99.98h-35.69v-99.98h-33.87v-28.41Z"/>
  </g>
</svg>