<?xml version="1.0" encoding="utf-8"?>
<!-- Generator: Adobe Illustrator 27.9.0, SVG Export Plug-In . SVG Version: 6.00 Build 0)  -->
<svg version="1.1" id="Layer_1" xmlns="http://www.w3.org/2000/svg" xmlns:xlink="http://www.w3.org/1999/xlink" x="0px" y="0px"
	 viewBox="0 0 415.5 405.6" style="enable-background:new 0 0 415.5 405.6;" xml:space="preserve">
<style type="text/css">
	.st0{fill:#565656;}
	.st1{fill:#48009F;}
</style>
<g>
	<path class="st0" d="M198.7,271.3C198.7,271.3,198.6,271.3,198.7,271.3c19-4.7,36-14.6,49.5-28.1c13.4-13.4,23.3-30.4,28.1-49.5
		l13.5,46.6l18.1,62.5v0h0l-62.5-18.1L198.7,271.3z"/>
	<path class="st1" d="M207.7,344.3c-78.2,0-141.5-63.4-141.5-141.5c0-6.3,0.4-12.6,1.2-18.7c0,0,0,0,0,0
		C75.8,120.9,125.8,70.8,189,62.5c0,0,0,0,0,0c6.1-0.8,12.3-1.2,18.7-1.2c78.2,0,141.5,63.4,141.5,141.5c0,27.3-7.7,52.7-21.1,74.3
		l-34.2-100.8c-0.5-1.7-1.1-3.3-1.7-4.9c-3.6-9.7-8.8-18.5-15.3-26.3c-16.5-19.8-41.4-32.4-69.2-32.4c-49.8,0-90.1,40.4-90.1,90.1
		c0,27.8,12.6,52.7,32.4,69.2c7.8,6.5,16.7,11.7,26.4,15.3c1.6,0.6,3.2,1.1,4.8,1.6L282,323.2C260.5,336.6,235,344.3,207.7,344.3z"
		/>
</g>
</svg>
